<?xml version="1.0" encoding="UTF-8"?><svg id="uuid-7b636366-ebae-488c-bea8-65b561a3e47b" xmlns="http://www.w3.org/2000/svg" viewBox="0 0 288.13 78.69"><g id="uuid-21df1c8c-82e8-440f-a940-229d60af6e95"><polygon points="33.97 11.35 45.6 18.06 57.23 24.78 61.05 22.57 61.93 23.08 61.93 27.47 61.93 55.61 42.06 67.09 42.06 74.03 67.94 59.08 67.94 24 67.94 19.61 67.06 19.1 64.55 17.65 54.72 23.33 57.23 24.78 45.6 31.49 33.97 38.2 22.34 31.49 10.72 24.78 22.34 18.06 33.97 11.35 33.97 11.35 33.97 11.35" style="fill:#78b7e5; fill-rule:evenodd;"/><polygon points="33.09 66.83 33.09 39.98 21.46 33.26 9.83 26.55 6.01 24.34 6.01 23.08 9.6 21.01 33.97 6.94 53.85 18.42 59.86 14.95 33.97 0 3.59 17.54 0 19.61 0 20.87 0 23.77 9.83 29.45 9.83 39.98 9.83 53.4 21.46 60.12 33.09 66.83 33.09 66.83 33.09 66.83" style="fill:#95c11f; fill-rule:evenodd;"/><polygon points="34.86 66.83 34.86 71.24 33.97 71.75 30.17 69.56 6.01 55.61 6.01 32.65 0 29.18 0 59.08 30.17 76.5 33.97 78.69 34.86 78.18 37.37 76.73 37.37 65.38 34.86 66.83 46.49 60.12 58.11 53.4 58.11 39.98 58.11 26.55 46.49 33.26 34.86 39.98 34.86 66.83 34.86 66.83 34.86 66.83" style="fill:#1d71b8; fill-rule:evenodd;"/><g><path d="M92.18,36.2c-1.12,.4-3.32,1.06-5.93,1.06-2.92,0-5.33-.74-7.22-2.55-1.66-1.6-2.69-4.18-2.69-7.19,.03-5.76,3.98-9.97,10.45-9.97,2.23,0,3.98,.49,4.81,.89l-.6,2.03c-1.03-.46-2.32-.83-4.27-.83-4.7,0-7.76,2.92-7.76,7.76s2.95,7.79,7.45,7.79c1.63,0,2.75-.23,3.32-.52v-5.76h-3.92v-2h6.36v9.28Z" style="fill:#595958;"/><path d="M103.57,37.06l-.2-1.75h-.09c-.77,1.09-2.26,2.06-4.24,2.06-2.81,0-4.24-1.98-4.24-3.98,0-3.35,2.98-5.18,8.33-5.16v-.29c0-1.15-.31-3.21-3.15-3.21-1.29,0-2.64,.4-3.61,1.03l-.57-1.66c1.15-.74,2.81-1.23,4.55-1.23,4.24,0,5.27,2.89,5.27,5.67v5.18c0,1.2,.06,2.38,.23,3.32h-2.29Zm-.37-7.07c-2.75-.06-5.87,.43-5.87,3.12,0,1.63,1.09,2.41,2.38,2.41,1.8,0,2.95-1.15,3.35-2.32,.09-.26,.14-.54,.14-.8v-2.41Z" style="fill:#595958;"/><path d="M109.7,27.52c0-1.63-.03-3.04-.11-4.32h2.21l.09,2.72h.11c.63-1.86,2.15-3.04,3.84-3.04,.29,0,.49,.03,.72,.09v2.38c-.26-.06-.52-.09-.86-.09-1.78,0-3.04,1.35-3.38,3.24-.06,.34-.11,.74-.11,1.17v7.39h-2.49v-9.54Z" style="fill:#595958;"/><path d="M131.04,16.72v16.75c0,1.23,.03,2.63,.11,3.58h-2.26l-.11-2.41h-.06c-.77,1.55-2.46,2.72-4.73,2.72-3.35,0-5.93-2.84-5.93-7.05-.03-4.61,2.84-7.45,6.21-7.45,2.12,0,3.55,1,4.18,2.12h.06v-8.28h2.52Zm-2.52,12.12c0-.32-.03-.74-.11-1.06-.37-1.6-1.75-2.92-3.64-2.92-2.61,0-4.15,2.29-4.15,5.36,0,2.81,1.38,5.13,4.1,5.13,1.69,0,3.24-1.12,3.69-3.01,.09-.34,.11-.69,.11-1.09v-2.41Z" style="fill:#595958;"/><path d="M136.62,30.58c.06,3.41,2.23,4.81,4.75,4.81,1.8,0,2.89-.31,3.84-.72l.43,1.8c-.89,.4-2.41,.86-4.61,.86-4.27,0-6.82-2.81-6.82-6.99s2.46-7.48,6.5-7.48c4.53,0,5.73,3.98,5.73,6.53,0,.52-.06,.92-.09,1.17h-9.74Zm7.39-1.8c.03-1.6-.66-4.1-3.49-4.1-2.55,0-3.67,2.35-3.87,4.1h7.36Z" style="fill:#595958;"/><path d="M149.56,26.94c0-1.43-.03-2.61-.11-3.75h2.23l.14,2.29h.06c.69-1.32,2.29-2.61,4.58-2.61,1.92,0,4.9,1.15,4.9,5.9v8.28h-2.52v-7.99c0-2.23-.83-4.1-3.21-4.1-1.66,0-2.95,1.17-3.38,2.58-.11,.31-.17,.74-.17,1.17v8.33h-2.52v-10.11Z" style="fill:#595958;"/><path d="M171.61,18.01c1.26-.26,3.06-.4,4.78-.4,2.66,0,4.38,.49,5.58,1.58,.97,.86,1.52,2.18,1.52,3.67,0,2.55-1.6,4.24-3.64,4.93v.09c1.49,.52,2.38,1.89,2.84,3.9,.63,2.69,1.09,4.55,1.49,5.3h-2.58c-.31-.54-.74-2.21-1.29-4.61-.57-2.66-1.6-3.67-3.87-3.75h-2.35v8.36h-2.49V18.01Zm2.49,8.79h2.55c2.66,0,4.35-1.46,4.35-3.67,0-2.49-1.8-3.58-4.44-3.61-1.2,0-2.06,.11-2.46,.23v7.05Z" style="fill:#595958;"/><path d="M199.47,30.01c0,5.13-3.55,7.36-6.9,7.36-3.75,0-6.64-2.75-6.64-7.13,0-4.64,3.04-7.36,6.87-7.36s6.67,2.89,6.67,7.13Zm-11,.14c0,3.04,1.75,5.33,4.21,5.33s4.21-2.26,4.21-5.38c0-2.35-1.17-5.33-4.15-5.33s-4.27,2.75-4.27,5.38Z" style="fill:#595958;"/><path d="M215.2,30.01c0,5.13-3.55,7.36-6.9,7.36-3.75,0-6.64-2.75-6.64-7.13,0-4.64,3.04-7.36,6.87-7.36s6.67,2.89,6.67,7.13Zm-11,.14c0,3.04,1.75,5.33,4.21,5.33s4.21-2.26,4.21-5.38c0-2.35-1.17-5.33-4.15-5.33s-4.27,2.75-4.27,5.38Z" style="fill:#595958;"/><path d="M218.37,26.94c0-1.43-.03-2.61-.11-3.75h2.21l.11,2.23h.09c.77-1.32,2.06-2.55,4.35-2.55,1.89,0,3.32,1.15,3.92,2.78h.06c.43-.77,.97-1.38,1.55-1.8,.83-.63,1.75-.97,3.06-.97,1.83,0,4.55,1.2,4.55,6.01v8.16h-2.46v-7.85c0-2.66-.97-4.27-3.01-4.27-1.43,0-2.55,1.06-2.98,2.29-.11,.34-.2,.8-.2,1.26v8.56h-2.46v-8.31c0-2.21-.97-3.81-2.89-3.81-1.58,0-2.72,1.26-3.12,2.52-.14,.37-.2,.8-.2,1.23v8.36h-2.46v-10.11Z" style="fill:#595958;"/><path d="M248.41,17.75h2.49v9.31h.09c.52-.74,1.03-1.43,1.52-2.06l5.9-7.25h3.09l-6.99,8.19,7.53,11.11h-2.95l-6.36-9.48-1.83,2.12v7.36h-2.49V17.75Z" style="fill:#595958;"/><path d="M266.65,19.3c.03,.86-.6,1.55-1.6,1.55-.89,0-1.52-.69-1.52-1.55s.66-1.58,1.58-1.58,1.55,.69,1.55,1.58Zm-2.81,17.76v-13.86h2.52v13.86h-2.52Z" style="fill:#595958;"/><path d="M273.58,19.21v3.98h3.61v1.92h-3.61v7.48c0,1.72,.49,2.69,1.89,2.69,.66,0,1.15-.09,1.46-.17l.11,1.89c-.49,.2-1.26,.34-2.23,.34-1.17,0-2.12-.37-2.72-1.06-.72-.74-.97-1.98-.97-3.61v-7.56h-2.15v-1.92h2.15v-3.32l2.46-.66Z" style="fill:#595958;"/><path d="M279.68,34.48c.74,.49,2.06,1,3.32,1,1.83,0,2.69-.92,2.69-2.06,0-1.2-.72-1.86-2.58-2.55-2.49-.89-3.67-2.26-3.67-3.92,0-2.23,1.8-4.07,4.78-4.07,1.4,0,2.64,.4,3.41,.86l-.63,1.83c-.54-.34-1.55-.8-2.84-.8-1.49,0-2.32,.86-2.32,1.89,0,1.15,.83,1.66,2.63,2.35,2.41,.92,3.64,2.12,3.64,4.18,0,2.43-1.89,4.15-5.18,4.15-1.52,0-2.92-.37-3.9-.95l.63-1.92Z" style="fill:#595958;"/></g><g><path d="M76.55,54.8c.76,.47,1.86,.85,3.02,.85,1.72,0,2.73-.91,2.73-2.23,0-1.22-.7-1.92-2.46-2.6-2.13-.76-3.45-1.86-3.45-3.7,0-2.03,1.69-3.55,4.22-3.55,1.34,0,2.31,.31,2.89,.64l-.47,1.38c-.43-.23-1.3-.62-2.48-.62-1.78,0-2.46,1.07-2.46,1.96,0,1.22,.79,1.82,2.6,2.52,2.21,.85,3.33,1.92,3.33,3.84,0,2.02-1.49,3.76-4.57,3.76-1.26,0-2.64-.37-3.33-.83l.43-1.41Z" style="fill:#1d71b8;"/><path d="M95.46,56.43c-.62,.31-1.86,.62-3.45,.62-3.68,0-6.45-2.33-6.45-6.61s2.77-6.86,6.82-6.86c1.63,0,2.65,.35,3.1,.58l-.41,1.38c-.64-.31-1.55-.54-2.64-.54-3.06,0-5.1,1.96-5.1,5.39,0,3.2,1.84,5.25,5.02,5.25,1.03,0,2.07-.21,2.75-.54l.35,1.34Z" style="fill:#1d71b8;"/><path d="M108.73,50.19c0,4.5-2.73,6.88-6.07,6.88s-5.87-2.67-5.87-6.63c0-4.15,2.58-6.86,6.07-6.86s5.87,2.73,5.87,6.61Zm-10.13,.21c0,2.79,1.51,5.29,4.17,5.29s4.19-2.46,4.19-5.43c0-2.6-1.36-5.31-4.17-5.31s-4.19,2.58-4.19,5.45Z" style="fill:#1d71b8;"/><path d="M113.39,45.23h-3.97v-1.43h9.67v1.43h-3.99v11.63h-1.71v-11.63Z" style="fill:#1d71b8;"/><path d="M120.54,43.79h1.69v11.65h5.58v1.41h-7.27v-13.06Z" style="fill:#1d71b8;"/><path d="M131.8,52.74l-1.36,4.11h-1.74l4.44-13.06h2.03l4.46,13.06h-1.8l-1.4-4.11h-4.63Zm4.28-1.32l-1.28-3.76c-.29-.85-.48-1.63-.68-2.38h-.04c-.19,.77-.41,1.57-.66,2.36l-1.28,3.78h3.93Z" style="fill:#1d71b8;"/><path d="M141.54,56.85v-13.06h1.84l4.19,6.61c.97,1.53,1.72,2.91,2.34,4.24l.04-.02c-.16-1.74-.19-3.33-.19-5.37v-5.46h1.59v13.06h-1.71l-4.15-6.63c-.91-1.45-1.78-2.95-2.44-4.36l-.06,.02c.1,1.65,.14,3.22,.14,5.39v5.58h-1.59Z" style="fill:#1d71b8;"/><path d="M154.28,43.97c1.03-.16,2.25-.27,3.58-.27,2.42,0,4.15,.56,5.29,1.63,1.16,1.07,1.84,2.58,1.84,4.69s-.66,3.88-1.88,5.08c-1.22,1.22-3.24,1.88-5.77,1.88-1.2,0-2.21-.06-3.06-.15v-12.85Zm1.69,11.55c.43,.08,1.05,.1,1.71,.1,3.6,0,5.56-2.02,5.56-5.54,.02-3.08-1.72-5.04-5.29-5.04-.87,0-1.53,.08-1.98,.17v10.31Z" style="fill:#1d71b8;"/></g><polygon points="58.17 26.35 55.75 27.64 47.71 43.03 39.79 37.05 37.37 38.42 37.38 41.64 45.3 47.59 37.35 62.56 37.36 65.78 40.93 64.48 48.79 49.5 55.65 55.22 58.13 54.03 58.12 50.89 51.2 44.96 59.24 29.62 58.17 26.35 58.17 26.35" style="fill:#fff;"/></g></svg>