<?xml version="1.0" encoding="UTF-8"?><svg id="uuid-d1a08381-f796-4bac-8fa1-7b8280aef0f1" xmlns="http://www.w3.org/2000/svg" viewBox="0 0 17.22 11.71"><g id="uuid-b9b00a58-1a4c-4647-887d-8edbbb2ce990"><path d="M.8,.62L7.06,6.41s.05,.04,.07,.06l1.19,1.09c.08,.07,.18,.11,.29,.11s.21-.04,.29-.11L16.43,.62c-.1-.07-.22-.11-.36-.11H1.15c-.13,0-.25,.04-.36,.11H.8ZM6.52,6.6L.52,1.06s0,.06,0,.09V10.56c0,.12,.03,.23,.09,.33L6.52,6.6h0Zm3.79,.35l-1.07,.99c-.18,.16-.41,.25-.64,.25s-.46-.08-.64-.25l-1.07-.99L1.06,11.2s.06,0,.1,0h14.92s.07,0,.1,0l-5.85-4.24h0ZM16.7,1.06l-6,5.54,5.92,4.29c.06-.1,.09-.21,.09-.33V1.15s0-.06,0-.09h0ZM1.15,0h14.92c.32,0,.6,.13,.81,.34h0s.04,.04,.06,.07c.02,.01,.03,.02,.05,.04,.03,.03,.05,.07,.06,.1,.11,.18,.17,.38,.17,.6V10.56c0,.32-.13,.6-.34,.81h0s-.02,.03-.04,.04c-.01,.01-.02,.02-.04,.03-.2,.17-.46,.27-.74,.27H1.15c-.32,0-.6-.13-.81-.34h0c-.21-.21-.34-.5-.34-.81V1.15C0,.84,.13,.55,.34,.34h0c.21-.21,.5-.34,.81-.34h0Z" style="fill:#fff;"/></g></svg>