<?xml version="1.0" encoding="UTF-8"?><svg id="uuid-5416364e-92f7-4c88-b700-cda50af5325b" xmlns="http://www.w3.org/2000/svg" viewBox="0 0 12.4 21.82"><g id="uuid-1cd8494a-b5f4-48b5-8436-16ec3e6f451b"><g><path d="M4.58,2.1c-.18,0-.32-.15-.32-.32s.15-.33,.32-.33h3.25c.18,0,.32,.15,.32,.33s-.15,.32-.32,.32h-3.25Z" style="fill:#fff;"/><path d="M8.97,2.1c-.18,0-.32-.15-.32-.32s.15-.33,.32-.33h.03c.18,0,.32,.15,.32,.33s-.15,.32-.32,.32h-.03Z" style="fill:#fff;"/><path d="M4.42,19.08s-.03,.09-.03,.14v.51c0,.05,0,.1,.03,.14,.02,.04,.05,.09,.08,.12h0s.08,.06,.12,.08c.04,.02,.09,.03,.14,.03h2.87c.05,0,.1-.01,.14-.03,.04-.02,.09-.05,.12-.08,.04-.04,.06-.08,.08-.12,.02-.04,.03-.09,.03-.14v-.51s0-.1-.03-.14c-.02-.05-.05-.09-.08-.12h0s-.08-.06-.12-.08c-.04-.02-.09-.03-.14-.03h-2.87c-.05,0-.1,.01-.14,.03-.04,.02-.09,.05-.12,.08-.03,.04-.06,.08-.08,.12h0Zm-.68,.14c0-.14,.03-.27,.08-.39,.05-.13,.13-.24,.22-.33,.09-.09,.21-.17,.33-.22,.12-.05,.25-.08,.39-.08h2.87c.14,0,.27,.03,.39,.08,.13,.05,.24,.13,.33,.22h0c.09,.09,.17,.21,.22,.33,.05,.12,.08,.25,.08,.39v.51c0,.14-.03,.27-.08,.39-.05,.13-.13,.24-.22,.33-.09,.09-.21,.17-.33,.22-.12,.05-.25,.08-.39,.08h-2.87c-.14,0-.27-.03-.39-.08-.13-.05-.24-.13-.33-.22h0c-.09-.09-.17-.21-.22-.33-.05-.12-.08-.25-.08-.39v-.51h0Z" style="fill:#fff;"/><path d="M1.83,17.05H10.57V3.68H1.83v13.37h0Zm9.06,.65H1.51c-.18,0-.32-.15-.32-.32V3.35c0-.18,.15-.32,.32-.32H10.89c.18,0,.33,.15,.33,.32v14.02c0,.18-.15,.32-.33,.32h0Z" style="fill:#fff;"/><path d="M0,18.95V2.88C0,2.09,.32,1.37,.84,.84c.26-.26,.58-.48,.93-.63,.34-.14,.71-.22,1.1-.22h6.65c.39,0,.76,.08,1.1,.22,.35,.15,.67,.36,.93,.63h0c.27,.27,.48,.58,.63,.93,.14,.34,.22,.71,.22,1.1V18.95c0,.39-.08,.76-.22,1.1-.14,.34-.35,.65-.61,.91l-.02,.02c-.26,.27-.58,.48-.93,.63-.34,.14-.71,.22-1.1,.22H2.88c-.39,0-.76-.08-1.1-.22-.35-.15-.67-.36-.93-.63-.26-.27-.48-.58-.63-.93-.14-.34-.22-.71-.22-1.1H0ZM.65,2.88V18.95c0,.3,.06,.59,.17,.85,.11,.27,.28,.52,.48,.72,.21,.21,.45,.37,.73,.49,.26,.11,.55,.17,.85,.17h6.65c.3,0,.59-.06,.85-.17,.27-.11,.52-.28,.72-.49h.02c.2-.22,.36-.46,.47-.72,.11-.26,.17-.55,.17-.85V2.88c0-.3-.06-.59-.17-.85-.11-.27-.28-.52-.49-.72-.21-.21-.45-.37-.73-.49-.26-.11-.55-.17-.85-.17H2.88c-.3,0-.59,.06-.85,.17-.27,.11-.52,.28-.72,.49-.4,.4-.66,.96-.66,1.57H.65Z" style="fill:#fff;"/></g></g></svg>